<?xml version="1.0" encoding="UTF-8"?>
<svg version="1.1" xmlns="http://www.w3.org/2000/svg" width="512" height="512">
<path d="M0 0 C0.8750116 0.00054382 1.75002319 0.00108765 2.65155029 0.00164795 C79.65241988 0.22069414 144.80053389 42.30053389 197.60717773 95.10717773 C202.22222465 99.78058361 206.52720902 104.5256652 210.578125 109.69921875 C212.6115252 112.27862456 214.71922316 114.76783983 216.86450195 117.25366211 C219.17019431 119.93488959 221.43157732 122.65188469 223.6875 125.375 C224.43128906 126.26445312 225.17507813 127.15390625 225.94140625 128.0703125 C226.57949219 128.89273438 227.21757812 129.71515625 227.875 130.5625 C228.70064453 131.60470703 228.70064453 131.60470703 229.54296875 132.66796875 C231.3397435 136.91767831 231.43940866 140.84044594 230.6875 145.375 C229.34789478 148.33212388 227.52015995 150.65024614 225.4375 153.125 C224.89609375 153.80473877 224.3546875 154.48447754 223.796875 155.18481445 C222.12021587 157.27166319 220.40964678 159.3256056 218.6875 161.375 C217.91889648 162.30481689 217.91889648 162.30481689 217.13476562 163.25341797 C213.73132095 167.3653575 210.24083455 171.39212863 206.6875 175.375 C206.21376953 175.90657715 205.74003906 176.4381543 205.25195312 176.98583984 C194.40713171 189.08398939 183.17234459 201.20681955 170.37109375 211.25 C167.9070562 213.20114473 165.53238118 215.23081482 163.16479492 217.29711914 C145.16382616 232.91734115 124.37069868 246.35042827 102.77001953 256.40380859 C101.31378081 257.08293141 99.86195163 257.77155394 98.41357422 258.46728516 C67.89910688 273.12197205 35.22552353 280.83313135 1.375 280.75 C0.49899139 280.74912384 -0.37701721 280.74824768 -1.27957153 280.74734497 C-37.74480171 280.62758848 -73.18663415 271.48719051 -105.43164062 254.37060547 C-107.3266309 253.36752001 -109.23212905 252.38726337 -111.140625 251.41015625 C-128.7247018 242.32854283 -145.09319057 231.00725989 -160.3125 218.375 C-160.80572754 217.96668945 -161.29895508 217.55837891 -161.80712891 217.13769531 C-178.64817469 203.1613368 -195.67269776 188.33091992 -209.203125 171.05078125 C-211.2365252 168.47137544 -213.34422316 165.98216017 -215.48950195 163.49633789 C-217.79519431 160.81511041 -220.05657732 158.09811531 -222.3125 155.375 C-223.05628906 154.48554688 -223.80007812 153.59609375 -224.56640625 152.6796875 C-225.52353516 151.44605469 -225.52353516 151.44605469 -226.5 150.1875 C-227.05042969 149.49269531 -227.60085937 148.79789063 -228.16796875 148.08203125 C-229.9647435 143.83232169 -230.06440866 139.90955406 -229.3125 135.375 C-227.97289719 132.41788144 -226.14512548 130.09977297 -224.0625 127.625 C-223.25147827 126.60647949 -223.25147827 126.60647949 -222.42407227 125.56738281 C-220.74694844 123.47953974 -219.03575062 121.42486039 -217.3125 119.375 C-216.53592041 118.43720703 -216.53592041 118.43720703 -215.74365234 117.48046875 C-212.34085781 113.3782292 -208.85285462 109.35880519 -205.3125 105.375 C-204.45398438 104.40433594 -203.59546875 103.43367188 -202.7109375 102.43359375 C-192.21747837 90.78300091 -181.3249962 79.14021442 -168.95703125 69.4609375 C-166.52314087 67.54114804 -164.17930229 65.54248777 -161.84301758 63.50585938 C-142.46433334 46.70802979 -120.52254275 33.20958869 -97.3125 22.375 C-96.70374023 22.08463867 -96.09498047 21.79427734 -95.46777344 21.49511719 C-65.49987741 7.27815754 -33.10956061 -0.0778013 0 0 Z M-81.3125 38.375 C-82.07578613 38.70951172 -82.83907227 39.04402344 -83.62548828 39.38867188 C-104.36095037 48.57894976 -123.59113872 60.22474589 -141.3125 74.375 C-142.32570312 75.17679688 -143.33890625 75.97859375 -144.3828125 76.8046875 C-149.69515966 81.08120095 -154.81657046 85.54219574 -159.85546875 90.13671875 C-161.47228342 91.60958807 -163.099693 93.07092425 -164.73828125 94.51953125 C-174.18735339 102.88354247 -183.18719042 111.71015808 -191.3125 121.375 C-192.23256129 122.45486321 -193.1531838 123.53424838 -194.07421875 124.61328125 C-195.07066845 125.78355118 -196.066761 126.95412531 -197.0625 128.125 C-197.53502197 128.68050537 -198.00754395 129.23601074 -198.49438477 129.80834961 C-199.77587821 131.32317526 -201.04465115 132.8487361 -202.3125 134.375 C-202.93640625 135.06078125 -203.5603125 135.7465625 -204.203125 136.453125 C-205.52603525 138.3567306 -205.52603525 138.3567306 -205.2421875 140.80859375 C-204.10967968 143.93488633 -202.58835303 145.90010576 -200.4375 148.4375 C-199.22320312 149.87222656 -199.22320312 149.87222656 -197.984375 151.3359375 C-194.35483055 155.49670057 -190.62052646 159.56016588 -186.86328125 163.60546875 C-184.8169649 165.82727318 -182.83185577 168.07533738 -180.875 170.375 C-173.67862048 178.66121584 -165.69327513 186.30229503 -157.3125 193.375 C-155.95318359 194.56802734 -155.95318359 194.56802734 -154.56640625 195.78515625 C-109.05053345 235.49033698 -49.66799689 263.62864839 11.80444336 260.10351562 C59.79063641 256.49943171 105.30161318 236.22709716 142.6875 206.375 C143.70070313 205.57320312 144.71390625 204.77140625 145.7578125 203.9453125 C151.06872343 199.66995523 156.18868179 195.2100819 161.2265625 190.6171875 C162.85685555 189.13180939 164.4974308 187.65763272 166.1484375 186.1953125 C175.24485956 178.1319226 183.82490324 169.65003929 191.6875 160.375 C192.68280525 159.21937251 193.67897995 158.06449355 194.67578125 156.91015625 C195.76320734 155.64859824 196.8504456 154.3868783 197.9375 153.125 C198.45755615 152.52196045 198.9776123 151.9189209 199.51342773 151.29760742 C200.48959537 150.15993505 201.46007908 149.01735204 202.42382812 147.86914062 C203.45913327 146.64501631 204.5296176 145.45072459 205.609375 144.265625 C206.89897961 142.38510124 206.89897961 142.38510124 206.6171875 139.94140625 C205.48467968 136.81511367 203.96335303 134.84989424 201.8125 132.3125 C201.00296875 131.35601562 200.1934375 130.39953125 199.359375 129.4140625 C195.72983055 125.25329943 191.99552646 121.18983412 188.23828125 117.14453125 C186.1919649 114.92272682 184.20685577 112.67466262 182.25 110.375 C175.05393747 102.08914915 167.06915952 94.44607276 158.6875 87.375 C157.79289062 86.59125 156.89828125 85.8075 155.9765625 85 C140.71114636 71.70144551 124.31964834 60.30365123 106.6875 50.375 C105.84993164 49.89933594 105.01236328 49.42367187 104.14941406 48.93359375 C46.55128132 16.52498552 -20.55671248 11.48856787 -81.3125 38.375 Z " fill="#000000" transform="translate(255.3125,115.625)"/>
<path d="M0 0 C1.82869629 0.00966797 1.82869629 0.00966797 3.69433594 0.01953125 C24.69570762 0.44033385 43.61701783 7.51193612 59.375 21.5 C60.38046875 22.29277344 60.38046875 22.29277344 61.40625 23.1015625 C77.23254416 35.85052168 87.68552144 56.53079277 90.375 76.5 C92.50219747 101.15782537 88.9251007 125.12116539 73.3125 145 C72.00999791 146.50868968 70.69817239 148.0094058 69.375 149.5 C68.84648437 150.1703125 68.31796875 150.840625 67.7734375 151.53125 C55.02447832 167.35754416 34.34420723 177.81052144 14.375 180.5 C-10.28282537 182.62719747 -34.24616539 179.0501007 -54.125 163.4375 C-55.63368968 162.13499791 -57.1344058 160.82317239 -58.625 159.5 C-59.2953125 158.97148437 -59.965625 158.44296875 -60.65625 157.8984375 C-76.40123827 145.21497472 -87.08074278 124.42498671 -89.625 104.5 C-91.36285752 78.75503763 -91.36285752 78.75503763 -87.625 69.5 C-84.446886 66.61752451 -82.35804662 65.61781106 -78.125 64.9375 C-74.58034057 65.50717741 -72.40141205 66.34871627 -69.76879883 68.83813477 C-66.39292567 73.74305868 -67.58534433 81.66204209 -67.74194336 87.35180664 C-68.19881713 105.30900104 -64.37884651 120.92676997 -52.25 134.8125 C-50.72621217 136.39244082 -49.18507091 137.9558753 -47.625 139.5 C-46.96113281 140.19738281 -46.29726562 140.89476562 -45.61328125 141.61328125 C-33.40864569 153.58544756 -15.49349635 159.5 1.375 159.5 C20.69708786 158.18305258 37.85251237 151.29834829 51.49609375 137.328125 C65.27678599 121.31780809 69.59125044 102.80813396 68.58203125 82.11914062 C67.31815944 66.12996995 59.6042273 52.61444815 48.375 41.5 C47.71113281 40.80261719 47.04726563 40.10523438 46.36328125 39.38671875 C37.06952534 30.26998676 24.11481354 24.61434318 11.375 22.5 C10.51003906 22.34789062 9.64507812 22.19578125 8.75390625 22.0390625 C-1.35995949 20.68653959 -11.96504588 22.28547449 -21.6875 25.1875 C-26.04382507 26.45455707 -29.19937474 27.00471259 -33.625 25.5 C-37.10419003 22.39093657 -38.47326979 20.58107772 -39.125 15.9375 C-38.56797623 12.10796155 -38.20274739 10.39020161 -35.625 7.5 C-25.19658698 0.99099053 -11.96659969 -0.06694601 0 0 Z " fill="#000000" transform="translate(255.625,165.5)"/>
<path d="M0 0 C8.80288754 6.34043826 15.4186507 14.72648904 17.58203125 25.4921875 C18.92007691 37.90936834 17.85729499 48.88109459 10.39453125 59.2421875 C3.58210875 67.3274193 -4.72289951 73.55522767 -15.48876953 74.71533203 C-28.40007937 75.61089799 -39.16843729 74.04490094 -49.3515625 65.46484375 C-57.86959925 57.33325857 -62.42046403 48.68416257 -62.88867188 36.85693359 C-63.04371176 24.34263074 -60.22647828 14.71931927 -51.41796875 5.4921875 C-37.63784493 -7.66275112 -16.31305228 -10.17259803 0 0 Z M-39.41796875 24.0546875 C-42.33185757 29.29770513 -42.37407157 34.66936456 -41.41796875 40.4921875 C-39.46232201 45.93749746 -35.82498142 49.84183452 -30.7890625 52.640625 C-25.31544692 54.60643752 -19.52049058 54.60643752 -14.046875 52.640625 C-9.01095608 49.84183452 -5.37361549 45.93749746 -3.41796875 40.4921875 C-2.46186593 34.66936456 -2.50407993 29.29770513 -5.41796875 24.0546875 C-9.12325879 19.1108604 -13.15064246 16.02867984 -19.3203125 15.015625 C-28.16776592 14.59166128 -34.07633052 16.92754345 -39.41796875 24.0546875 Z " fill="#000000" transform="translate(278.41796875,221.5078125)"/>
<path d="M0 0 C6.03308036 3.43319257 10.61687231 8.32832237 15.484375 13.21875 C16.38117981 14.11364136 17.27798462 15.00853271 18.20196533 15.93054199 C20.09044007 17.81765922 21.97677899 19.70665097 23.85986328 21.59912109 C26.26951031 24.02019454 28.68807072 26.43213309 31.1094017 28.84151459 C33.42675987 31.14990057 35.73647681 33.46590115 38.046875 35.78125 C38.91455505 36.64488159 39.78223511 37.50851318 40.6762085 38.39831543 C41.47754211 39.20595337 42.27887573 40.01359131 43.10449219 40.84570312 C43.81031433 41.55311646 44.51613647 42.26052979 45.24334717 42.98937988 C48.58753451 46.81705159 49.44340749 49.88196533 49.328125 55.03125 C48.80947233 58.14316604 47.21445226 59.85067869 45 62 C41.83350487 63.58324757 38.42541806 63.64374236 35 63 C28.96691964 59.56680743 24.38312769 54.67167763 19.515625 49.78125 C18.17041779 48.43891296 18.17041779 48.43891296 16.79803467 47.06945801 C14.90955993 45.18234078 13.02322101 43.29334903 11.14013672 41.40087891 C8.73048969 38.97980546 6.31192928 36.56786691 3.8905983 34.15848541 C1.57324013 31.85009943 -0.73647681 29.53409885 -3.046875 27.21875 C-3.91455505 26.35511841 -4.78223511 25.49148682 -5.6762085 24.60168457 C-6.47754211 23.79404663 -7.27887573 22.98640869 -8.10449219 22.15429688 C-8.81031433 21.44688354 -9.51613647 20.73947021 -10.24334717 20.01062012 C-13.58753451 16.18294841 -14.44340749 13.11803467 -14.328125 7.96875 C-13.80947233 4.85683396 -12.21445226 3.14932131 -10 1 C-6.83350487 -0.58324757 -3.42541806 -0.64374236 0 0 Z " fill="#000000" transform="translate(407,383)"/>
<path d="M0 0 C2.8100346 1.79363911 4.50940468 3.01880935 6 6 C6.51240386 12.14884632 5.83684153 15.10458938 2 20 C-0.97399649 23.26105083 -4.09102652 26.37131341 -7.21875 29.484375 C-8.56108704 30.82958221 -8.56108704 30.82958221 -9.93054199 32.20196533 C-11.81765922 34.09044007 -13.70665097 35.97677899 -15.59912109 37.85986328 C-18.02019454 40.26951031 -20.43213309 42.68807072 -22.84151459 45.1094017 C-25.14990057 47.42675987 -27.46590115 49.73647681 -29.78125 52.046875 C-30.64488159 52.91455505 -31.50851318 53.78223511 -32.39831543 54.6762085 C-33.20595337 55.47754211 -34.01359131 56.27887573 -34.84570312 57.10449219 C-35.55311646 57.81031433 -36.26052979 58.51613647 -36.98937988 59.24334717 C-40.81705159 62.58753451 -43.88196533 63.44340749 -49.03125 63.328125 C-52.14316604 62.80947233 -53.85067869 61.21445226 -56 59 C-57.58324757 55.83350487 -57.64374236 52.42541806 -57 49 C-53.56680743 42.96691964 -48.67167763 38.38312769 -43.78125 33.515625 C-42.88635864 32.61882019 -41.99146729 31.72201538 -41.06945801 30.79803467 C-39.18234078 28.90955993 -37.29334903 27.02322101 -35.40087891 25.14013672 C-32.97980546 22.73048969 -30.56786691 20.31192928 -28.15848541 17.8905983 C-25.85009943 15.57324013 -23.53409885 13.26352319 -21.21875 10.953125 C-20.35511841 10.08544495 -19.49148682 9.21776489 -18.60168457 8.3237915 C-17.79404663 7.52245789 -16.98640869 6.72112427 -16.15429688 5.89550781 C-15.09317688 4.8367746 -15.09317688 4.8367746 -14.01062012 3.75665283 C-9.76863691 0.05048688 -5.59589723 -0.93264954 0 0 Z " fill="#000000" transform="translate(113,383)"/>
<path d="M0 0 C2.8100346 1.79363911 4.50940468 3.01880935 6 6 C6.51240386 12.14884632 5.83684153 15.10458938 2 20 C-0.97399649 23.26105083 -4.09102652 26.37131341 -7.21875 29.484375 C-8.56108704 30.82958221 -8.56108704 30.82958221 -9.93054199 32.20196533 C-11.81765922 34.09044007 -13.70665097 35.97677899 -15.59912109 37.85986328 C-18.02019454 40.26951031 -20.43213309 42.68807072 -22.84151459 45.1094017 C-25.14990057 47.42675987 -27.46590115 49.73647681 -29.78125 52.046875 C-30.64488159 52.91455505 -31.50851318 53.78223511 -32.39831543 54.6762085 C-33.20595337 55.47754211 -34.01359131 56.27887573 -34.84570312 57.10449219 C-35.55311646 57.81031433 -36.26052979 58.51613647 -36.98937988 59.24334717 C-40.81705159 62.58753451 -43.88196533 63.44340749 -49.03125 63.328125 C-52.14316604 62.80947233 -53.85067869 61.21445226 -56 59 C-57.58324757 55.83350487 -57.64374236 52.42541806 -57 49 C-53.56680743 42.96691964 -48.67167763 38.38312769 -43.78125 33.515625 C-42.88635864 32.61882019 -41.99146729 31.72201538 -41.06945801 30.79803467 C-39.18234078 28.90955993 -37.29334903 27.02322101 -35.40087891 25.14013672 C-32.97980546 22.73048969 -30.56786691 20.31192928 -28.15848541 17.8905983 C-25.85009943 15.57324013 -23.53409885 13.26352319 -21.21875 10.953125 C-20.35511841 10.08544495 -19.49148682 9.21776489 -18.60168457 8.3237915 C-17.79404663 7.52245789 -16.98640869 6.72112427 -16.15429688 5.89550781 C-15.09317688 4.8367746 -15.09317688 4.8367746 -14.01062012 3.75665283 C-9.76863691 0.05048688 -5.59589723 -0.93264954 0 0 Z " fill="#000000" transform="translate(450,76)"/>
<path d="M0 0 C6.03308036 3.43319257 10.61687231 8.32832237 15.484375 13.21875 C16.38117981 14.11364136 17.27798462 15.00853271 18.20196533 15.93054199 C20.09044007 17.81765922 21.97677899 19.70665097 23.85986328 21.59912109 C26.26951031 24.02019454 28.68807072 26.43213309 31.1094017 28.84151459 C33.42675987 31.14990057 35.73647681 33.46590115 38.046875 35.78125 C38.91455505 36.64488159 39.78223511 37.50851318 40.6762085 38.39831543 C41.47754211 39.20595337 42.27887573 40.01359131 43.10449219 40.84570312 C43.81031433 41.55311646 44.51613647 42.26052979 45.24334717 42.98937988 C48.58753451 46.81705159 49.44340749 49.88196533 49.328125 55.03125 C48.80947233 58.14316604 47.21445226 59.85067869 45 62 C41.83350487 63.58324757 38.42541806 63.64374236 35 63 C28.96691964 59.56680743 24.38312769 54.67167763 19.515625 49.78125 C18.17041779 48.43891296 18.17041779 48.43891296 16.79803467 47.06945801 C14.90955993 45.18234078 13.02322101 43.29334903 11.14013672 41.40087891 C8.73048969 38.97980546 6.31192928 36.56786691 3.8905983 34.15848541 C1.57324013 31.85009943 -0.73647681 29.53409885 -3.046875 27.21875 C-3.91455505 26.35511841 -4.78223511 25.49148682 -5.6762085 24.60168457 C-6.47754211 23.79404663 -7.27887573 22.98640869 -8.10449219 22.15429688 C-8.81031433 21.44688354 -9.51613647 20.73947021 -10.24334717 20.01062012 C-13.58753451 16.18294841 -14.44340749 13.11803467 -14.328125 7.96875 C-13.80947233 4.85683396 -12.21445226 3.14932131 -10 1 C-6.83350487 -0.58324757 -3.42541806 -0.64374236 0 0 Z " fill="#000000" transform="translate(70,76)"/>
<path d="M0 0 C0.825 -0.01289063 1.65 -0.02578125 2.5 -0.0390625 C6.16805961 0.93526583 7.61889423 2.70372991 10 5.625 C10.49649058 8.32506876 10.68676097 10.39765935 10.64697266 13.08984375 C10.66011505 14.1907988 10.66011505 14.1907988 10.67352295 15.31399536 C10.69546007 17.73077189 10.68098646 20.14570616 10.6640625 22.5625 C10.66743232 24.24731801 10.67228632 25.93213365 10.67855835 27.61694336 C10.6859219 31.14427892 10.67524146 34.67098046 10.65185547 38.19824219 C10.62336726 42.71463994 10.63977412 47.22955212 10.66971779 51.74589539 C10.68780519 55.22386829 10.68202628 58.70149027 10.66907883 62.17947388 C10.66574877 63.84441301 10.66981787 65.50938424 10.68147659 67.17428589 C10.69421009 69.50376483 10.67477815 71.83085483 10.64697266 74.16015625 C10.65709381 74.84498077 10.66721497 75.5298053 10.67764282 76.23538208 C10.59369013 80.04101765 10.05360809 81.55923068 7.61581421 84.55004883 C4.77019261 86.80729089 3.5751888 87.30586232 0 87.25 C-1.2375 87.26933594 -1.2375 87.26933594 -2.5 87.2890625 C-6.16805961 86.31473417 -7.61889423 84.54627009 -10 81.625 C-10.49649058 78.92493124 -10.68676097 76.85234065 -10.64697266 74.16015625 C-10.65573425 73.42618622 -10.66449585 72.69221619 -10.67352295 71.93600464 C-10.69546007 69.51922811 -10.68098646 67.10429384 -10.6640625 64.6875 C-10.66743232 63.00268199 -10.67228632 61.31786635 -10.67855835 59.63305664 C-10.6859219 56.10572108 -10.67524146 52.57901954 -10.65185547 49.05175781 C-10.62336726 44.53536006 -10.63977412 40.02044788 -10.66971779 35.50410461 C-10.68780519 32.02613171 -10.68202628 28.54850973 -10.66907883 25.07052612 C-10.66574877 23.40558699 -10.66981787 21.74061576 -10.68147659 20.07571411 C-10.69421009 17.74623517 -10.67477815 15.41914517 -10.64697266 13.08984375 C-10.66215439 12.06260696 -10.66215439 12.06260696 -10.67764282 11.01461792 C-10.59369013 7.20898235 -10.05360809 5.69076932 -7.61581421 2.69995117 C-4.77019261 0.44270911 -3.5751888 -0.05586232 0 0 Z " fill="#000000" transform="translate(256,425.375)"/>
<path d="M0 0 C0.825 -0.01289063 1.65 -0.02578125 2.5 -0.0390625 C6.16805961 0.93526583 7.61889423 2.70372991 10 5.625 C10.49649058 8.32506876 10.68676097 10.39765935 10.64697266 13.08984375 C10.66011505 14.1907988 10.66011505 14.1907988 10.67352295 15.31399536 C10.69546007 17.73077189 10.68098646 20.14570616 10.6640625 22.5625 C10.66743232 24.24731801 10.67228632 25.93213365 10.67855835 27.61694336 C10.6859219 31.14427892 10.67524146 34.67098046 10.65185547 38.19824219 C10.62336726 42.71463994 10.63977412 47.22955212 10.66971779 51.74589539 C10.68780519 55.22386829 10.68202628 58.70149027 10.66907883 62.17947388 C10.66574877 63.84441301 10.66981787 65.50938424 10.68147659 67.17428589 C10.69421009 69.50376483 10.67477815 71.83085483 10.64697266 74.16015625 C10.65709381 74.84498077 10.66721497 75.5298053 10.67764282 76.23538208 C10.59369013 80.04101765 10.05360809 81.55923068 7.61581421 84.55004883 C4.77019261 86.80729089 3.5751888 87.30586232 0 87.25 C-1.2375 87.26933594 -1.2375 87.26933594 -2.5 87.2890625 C-6.16805961 86.31473417 -7.61889423 84.54627009 -10 81.625 C-10.49649058 78.92493124 -10.68676097 76.85234065 -10.64697266 74.16015625 C-10.65573425 73.42618622 -10.66449585 72.69221619 -10.67352295 71.93600464 C-10.69546007 69.51922811 -10.68098646 67.10429384 -10.6640625 64.6875 C-10.66743232 63.00268199 -10.67228632 61.31786635 -10.67855835 59.63305664 C-10.6859219 56.10572108 -10.67524146 52.57901954 -10.65185547 49.05175781 C-10.62336726 44.53536006 -10.63977412 40.02044788 -10.66971779 35.50410461 C-10.68780519 32.02613171 -10.68202628 28.54850973 -10.66907883 25.07052612 C-10.66574877 23.40558699 -10.66981787 21.74061576 -10.68147659 20.07571411 C-10.69421009 17.74623517 -10.67477815 15.41914517 -10.64697266 13.08984375 C-10.66215439 12.06260696 -10.66215439 12.06260696 -10.67764282 11.01461792 C-10.59369013 7.20898235 -10.05360809 5.69076932 -7.61581421 2.69995117 C-4.77019261 0.44270911 -3.5751888 -0.05586232 0 0 Z " fill="#000000" transform="translate(256,-0.625)"/>
<path d="M0 0 C3.125 1.875 3.125 1.875 5 5 C5.98876625 10.02622846 5.7769173 13.70513784 3.125 18.125 C-1.29486216 20.7769173 -4.97377154 20.98876625 -10 20 C-13.125 18.125 -13.125 18.125 -15 15 C-15.98876625 9.97377154 -15.7769173 6.29486216 -13.125 1.875 C-8.70513784 -0.7769173 -5.02622846 -0.98876625 0 0 Z " fill="#000000" transform="translate(201,196)"/>
</svg>
