<?xml version="1.0" encoding="UTF-8"?>
<svg version="1.1" xmlns="http://www.w3.org/2000/svg" width="512" height="512">
<path d="M0 0 C3.89663004 1.65814044 5.43865338 3.12873317 7 7 C7.39477539 9.71728516 7.39477539 9.71728516 7.59765625 12.7890625 C7.71657227 14.44808594 7.71657227 14.44808594 7.83789062 16.140625 C7.91201172 17.29046875 7.98613281 18.4403125 8.0625 19.625 C8.21638453 21.90910422 8.37375797 24.19297692 8.53515625 26.4765625 C8.600979 27.48799316 8.66680176 28.49942383 8.73461914 29.54150391 C8.85568618 32.00190562 8.85568618 32.00190562 10 34 C10.47421387 33.52054932 10.94842773 33.04109863 11.43701172 32.54711914 C13.58040335 30.38298162 15.7276439 28.22270353 17.875 26.0625 C18.62136719 25.30775391 19.36773437 24.55300781 20.13671875 23.77539062 C20.85214844 23.05673828 21.56757813 22.33808594 22.3046875 21.59765625 C23.2944458 20.60004272 23.2944458 20.60004272 24.30419922 19.58227539 C26.55319553 17.48383815 27.73398166 17.03546911 30.8125 16.625 C34 17 34 17 36.875 19.125 C39 22 39 22 39.75 24.8125 C38.58867899 29.74811428 35.51359177 32.46788314 32 36 C31.11183594 36.90234375 30.22367187 37.8046875 29.30859375 38.734375 C26.88776038 41.17242624 24.45152703 43.59286682 22 46 C23.74708271 47.74708271 26.22850012 47.29514802 28.609375 47.4296875 C29.75664062 47.50316406 30.90390625 47.57664063 32.0859375 47.65234375 C34.51261495 47.79980709 36.93971255 47.94052413 39.3671875 48.07421875 C40.51960938 48.15027344 41.67203125 48.22632813 42.859375 48.3046875 C44.44443848 48.3972583 44.44443848 48.3972583 46.06152344 48.49169922 C49.33307096 49.05761497 51.31620392 50.07315674 54 52 C56.72244838 56.09616086 56.89677503 60.25896359 56 65 C54.8085022 66.81204224 54.8085022 66.81204224 53.16650391 68.58251953 C52.52811584 69.27444397 51.88972778 69.96636841 51.23199463 70.67926025 C46.78516504 75.3028978 42.3011458 79.88548755 37.7734375 84.4296875 C37.2455022 84.96045017 36.71756691 85.49121284 36.17363358 86.03805923 C33.3889412 88.83762325 30.60148043 91.63439375 27.81152344 94.42871094 C24.93885979 97.30689442 22.07562029 100.1942695 19.21439171 103.08381462 C17.00092086 105.31590994 14.78076963 107.54126821 12.55873489 109.76483536 C11.49972646 110.82686264 10.44321027 111.89138134 9.38929367 112.95846176 C7.91806121 114.4467781 6.43762226 115.92530958 4.95458984 117.40185547 C4.1163266 118.24376434 3.27806335 119.08567322 2.41439819 119.95309448 C-2.27101035 123.92534257 -6.2511772 124.24484628 -12.26953125 124.1953125 C-12.95053391 124.1924826 -13.63153656 124.18965271 -14.33317566 124.18673706 C-16.49313455 124.17560525 -18.65266794 124.15051457 -20.8125 124.125 C-22.28319711 124.11496111 -23.75390076 124.10583685 -25.22460938 124.09765625 C-28.81654286 124.07568913 -32.40822985 124.0412082 -36 124 C-35.33548828 124.84288574 -34.67097656 125.68577148 -33.98632812 126.55419922 C5.19145043 176.46617062 24.09427884 239.1813185 16.74609375 302.5078125 C13.23746527 329.56312721 6.15684728 355.54038301 -6 380 C-6.39445312 380.80518066 -6.78890625 381.61036133 -7.1953125 382.43994141 C-12.88453871 393.9720947 -19.34136127 404.67162454 -27 415 C-27.44988281 415.60682617 -27.89976562 416.21365234 -28.36328125 416.83886719 C-35.02995367 425.73897092 -42.29558735 433.98914734 -50 442 C-50.70406982 442.73694092 -50.70406982 442.73694092 -51.42236328 443.48876953 C-57.86909018 450.20646218 -64.60045018 456.35200294 -72 462 C-72.62729004 462.48194824 -73.25458008 462.96389648 -73.90087891 463.46044922 C-96.40552427 480.61015403 -121.04663744 493.47645958 -148 502 C-148.85158691 502.27086426 -149.70317383 502.54172852 -150.58056641 502.82080078 C-202.41155416 518.96008295 -259.91991342 515.37778712 -310 495 C-311.11834229 494.54802246 -311.11834229 494.54802246 -312.25927734 494.08691406 C-330.86228035 486.46504637 -348.0389725 476.20610688 -364 464 C-364.66499512 463.49702393 -365.32999023 462.99404785 -366.01513672 462.47583008 C-370.78198868 458.67669851 -370.78198868 458.67669851 -371.7890625 455.55078125 C-371.70785156 454.44283203 -371.70785156 454.44283203 -371.625 453.3125 C-371.59664063 452.56613281 -371.56828125 451.81976563 -371.5390625 451.05078125 C-370.87312924 448.51733948 -370.08447443 447.56813673 -368 446 C-362.92792644 444.9365007 -360.47515843 445.0461827 -356.08203125 447.88671875 C-353.86680961 449.59246044 -351.71755821 451.37625286 -349.55859375 453.15234375 C-309.7740086 485.68332484 -252.34083079 499.61154789 -201.77246094 495.28173828 C-145.14489431 489.5272286 -89.39260055 464.2156092 -52.5625 419.75 C-51.03629161 417.83761063 -49.5156106 415.92079922 -48 414 C-47.20722656 413.02417969 -46.41445313 412.04835938 -45.59765625 411.04296875 C-20.32342027 379.30044489 -4.33078323 339.28635567 0 299 C0.11085938 298.01 0.22171875 297.02 0.3359375 296 C5.58270065 240.4126715 -10.88383459 181.45602305 -46.40625 138.08203125 C-49.84115396 133.96858042 -53.36456192 129.9375232 -57 126 C-64.11905227 131.80683219 -70.47374812 138.36285444 -76.9375 144.875 C-78.10979204 146.05231638 -79.28231614 147.22940174 -80.45507812 148.40625 C-83.30606982 151.26817489 -86.15389615 154.13321457 -89 157 C-87.69260847 160.42282366 -86.56306328 162.75032462 -84 165.375 C-58.51048349 193.80763594 -43.74277125 236.47433747 -44.6953125 274.62890625 C-45 277 -45 277 -46.5 280.25 C-49.51651356 282.36155949 -51.39453746 282.55936433 -55 282.56640625 C-57.90956144 281.74240936 -59.08664912 280.31984413 -61 278 C-61.65014648 275.21704102 -61.65014648 275.21704102 -61.87109375 272.00390625 C-61.96737061 270.81595459 -62.06364746 269.62800293 -62.1628418 268.40405273 C-62.29879761 266.50248413 -62.29879761 266.50248413 -62.4375 264.5625 C-65.37821338 231.42882543 -76.47386871 200.03572533 -98.625 174.75 C-101 172 -101 172 -101 170 C-108.44235105 176.19586967 -115.18615315 183.0722535 -122 189.9375 C-123.16773374 191.11026009 -124.33570074 192.28278798 -125.50390625 193.45507812 C-128.33863234 196.30071689 -131.17018824 199.14947453 -134 202 C-131.97360357 205.4254537 -129.82280081 208.70121673 -127.53564453 211.95898438 C-110.74541398 236.16548463 -104.94041697 265.2899408 -109.30859375 294.33984375 C-112.96213123 313.6808868 -121.03858788 332.12465974 -134 347 C-134.69996094 347.83273437 -135.39992188 348.66546875 -136.12109375 349.5234375 C-153.40506168 369.5494253 -177.92112378 382.20042863 -204 386 C-218.84220654 386.74806081 -234.69772695 387.4006994 -249 383 C-249.65645508 382.80664062 -250.31291016 382.61328125 -250.98925781 382.4140625 C-266.32520115 377.81966061 -279.92211752 370.54903659 -292 360 C-293.02287109 359.17435547 -293.02287109 359.17435547 -294.06640625 358.33203125 C-315.33825813 340.80668949 -327.32263185 313.45950216 -330.59765625 286.5859375 C-333.3161389 257.99683956 -324.91801947 228.66411698 -306.8984375 206.27734375 C-306.27195312 205.52582031 -305.64546875 204.77429688 -305 204 C-304.33226562 203.19691406 -303.66453125 202.39382812 -302.9765625 201.56640625 C-284.91673331 180.6704667 -259.2756524 167.63864871 -231.9375 164.25 C-230.2932821 164.13927826 -228.64688544 164.05899291 -227 164 C-225.84757813 163.9484375 -224.69515625 163.896875 -223.5078125 163.84375 C-197.82535394 163.23347376 -172.63320371 170.43498717 -152.234375 186.3359375 C-150.20468296 187.84756129 -148.26937941 188.90700493 -146 190 C-141.60025412 185.62492701 -137.20376764 181.24661472 -132.81030273 176.86523438 C-131.31445586 175.37442402 -129.81771376 173.88451138 -128.32006836 172.39550781 C-126.17066638 170.25820111 -124.02447815 168.1177132 -121.87890625 165.9765625 C-121.20598038 165.30879791 -120.5330545 164.64103333 -119.83973694 163.95303345 C-119.21916916 163.3325412 -118.59860138 162.71204895 -117.95922852 162.07275391 C-117.41073746 161.52648346 -116.8622464 160.98021301 -116.2971344 160.41738892 C-114.89160607 159.01148884 -114.89160607 159.01148884 -114 157 C-114.57492187 156.74089844 -115.14984375 156.48179687 -115.7421875 156.21484375 C-118.18583961 154.90000672 -120.02375515 153.37378812 -122.125 151.5625 C-153.13534048 126.4436675 -194.84902355 114.48635465 -234.453125 118.49609375 C-276.60915885 123.43197904 -315.53723595 143.30941941 -342.375 176.59375 C-350.72658853 187.27486174 -357.40869562 198.66216305 -363 211 C-363.27827637 211.61311035 -363.55655273 212.2262207 -363.84326172 212.85791016 C-379.85114494 248.8249284 -381.39266555 291.42989702 -367.8203125 328.4296875 C-360.57910451 347.06743029 -351.02202061 363.79524069 -338 379 C-337.23042969 379.90363281 -336.46085937 380.80726563 -335.66796875 381.73828125 C-329.95911191 388.23828676 -323.87036109 393.75530182 -317 399 C-316.12601563 399.67804688 -315.25203125 400.35609375 -314.3515625 401.0546875 C-280.74955857 426.37936495 -239.47013696 436.61989235 -197.9140625 431.41845703 C-155.98705776 425.39777287 -117.91975565 402.79652588 -92.5 368.9375 C-79.88056125 351.62493664 -71.3630249 332.55202697 -66.04003906 311.8659668 C-65.81541992 311.01558838 -65.59080078 310.16520996 -65.359375 309.2890625 C-65.16827148 308.53318848 -64.97716797 307.77731445 -64.78027344 306.99853516 C-63.87327924 304.67542674 -62.94760864 303.5458047 -61 302 C-56.96631907 300.87953308 -54.88849719 300.5841077 -51.0625 302.375 C-48.08358186 306.16635036 -48.58372164 309.31924136 -49 314 C-49.61966135 317.38296045 -50.51728857 320.6434017 -51.5 323.9375 C-51.76699707 324.84773926 -52.03399414 325.75797852 -52.30908203 326.69580078 C-55.09312755 335.8397447 -58.78066037 344.43651202 -63 353 C-63.32226562 353.66225586 -63.64453125 354.32451172 -63.9765625 355.00683594 C-71.73437651 370.78263456 -82.22196501 384.02930344 -94 397 C-95.04607422 398.15628906 -95.04607422 398.15628906 -96.11328125 399.3359375 C-123.9628125 428.55707307 -167.26594428 448.20355376 -207.51496887 449.26394653 C-211.40624963 449.32686762 -215.29583018 449.33097437 -219.1875 449.3125 C-220.00492676 449.31034485 -220.82235352 449.3081897 -221.66455078 449.30596924 C-233.6715638 449.25516672 -245.29415862 448.90671365 -257 446 C-257.81178711 445.80664062 -258.62357422 445.61328125 -259.45996094 445.4140625 C-288.1136836 438.42587572 -313.99813862 425.14831843 -335.69140625 405.12109375 C-337.81495436 403.17001655 -339.98675681 401.30031718 -342.1875 399.4375 C-346.19441818 395.92644794 -349.63762155 392.12718174 -353 388 C-354.16015625 386.57880859 -354.16015625 386.57880859 -355.34375 385.12890625 C-384.27179042 348.98014692 -398.08564354 302.07521416 -393 256 C-387.05316189 210.61359788 -365.20637116 168.20710875 -329.1484375 139.41015625 C-290.64946261 109.93885661 -244.3303228 96.09531687 -195.94140625 102.25390625 C-160.70035242 107.29642509 -130.26343126 122.51081016 -103 145 C-100.14220983 143.70280076 -98.08991464 142.3363174 -95.88378906 140.11083984 C-95.30348938 139.5303891 -94.7231897 138.94993835 -94.12530518 138.35189819 C-93.51161072 137.72788116 -92.89791626 137.10386414 -92.265625 136.4609375 C-91.30858673 135.49965439 -91.30858673 135.49965439 -90.33221436 134.51895142 C-88.30005931 132.47562179 -86.27497782 130.42544018 -84.25 128.375 C-82.8715547 126.9865214 -81.49265364 125.5984951 -80.11328125 124.2109375 C-76.73688106 120.81251303 -73.36680712 117.40792746 -70 114 C-73.91964824 109.14974176 -73.91964824 109.14974176 -78.5390625 104.9921875 C-79.19132812 104.48679443 -79.84359375 103.98140137 -80.515625 103.46069336 C-81.55976562 102.67577515 -81.55976562 102.67577515 -82.625 101.875 C-83.37007813 101.31369385 -84.11515625 100.7523877 -84.8828125 100.17407227 C-132.69788869 64.66639746 -191.37779876 49.03833029 -250.4296875 56.95703125 C-261.13062388 58.55596688 -271.58592906 61.09349258 -282 64 C-282.80840332 64.22526367 -283.61680664 64.45052734 -284.44970703 64.68261719 C-325.88518481 76.5925354 -364.39215916 103.20208858 -391 137 C-391.77988281 137.95132813 -392.55976563 138.90265625 -393.36328125 139.8828125 C-420.7963662 174.09760107 -438.80343222 219.9032529 -439.23828125 263.93359375 C-439.24812042 264.76053238 -439.25795959 265.58747101 -439.26809692 266.43946838 C-439.79157095 321.90274143 -424.73320102 375.68175731 -387.36328125 418.01953125 C-386.54214844 418.96183594 -385.72101563 419.90414063 -384.875 420.875 C-384.12992187 421.69742187 -383.38484375 422.51984375 -382.6171875 423.3671875 C-380.51925769 426.78265777 -380.60268302 429.05916993 -381 433 C-382.5 435.4375 -382.5 435.4375 -385 437 C-389.04669624 437.80933925 -391.3497747 438.07562456 -394.83984375 435.80078125 C-397.10417293 433.6704927 -399.0317709 431.40967003 -401 429 C-401.47066895 428.42540039 -401.94133789 427.85080078 -402.42626953 427.25878906 C-415.00273698 411.74768017 -425.57845705 395.0986614 -434 377 C-434.3295166 376.31147949 -434.6590332 375.62295898 -434.99853516 374.91357422 C-449.91945051 343.69453803 -456.45153821 310.14744362 -456.375 275.6875 C-456.37412384 274.72056213 -456.37324768 273.75362427 -456.37234497 272.75738525 C-456.32497892 256.86042053 -455.45862184 241.57248826 -452 226 C-451.76394043 224.93265625 -451.52788086 223.8653125 -451.28466797 222.765625 C-441.31623942 179.36986125 -419.74425284 140.96709352 -389 109 C-388.29593018 108.26305908 -388.29593018 108.26305908 -387.57763672 107.51123047 C-345.90090487 64.08276208 -285.35089558 39.15279516 -225.47265625 37.83203125 C-183.04763884 37.47170918 -142.45175441 46.92949803 -105 67 C-104.39994141 67.31936523 -103.79988281 67.63873047 -103.18164062 67.96777344 C-90.54330344 74.75553905 -79.27264371 83.17206426 -68 92 C-68.01571045 91.09233887 -68.0314209 90.18467773 -68.04760742 89.24951172 C-68.0989313 85.86126928 -68.13644416 82.47344381 -68.16479492 79.08496094 C-68.17982196 77.62232925 -68.20024955 76.15974218 -68.22631836 74.69726562 C-68.26297267 72.5871272 -68.27978676 70.47758774 -68.29296875 68.3671875 C-68.3086792 67.09987793 -68.32438965 65.83256836 -68.34057617 64.52685547 C-67.70684049 57.96417036 -64.3018532 53.8596858 -59.73413086 49.37768555 C-59.21021255 48.85172287 -58.68629425 48.32576019 -58.14649963 47.78385925 C-56.42643732 46.06080772 -54.69592533 44.34869347 -52.96484375 42.63671875 C-51.762646 41.43758103 -50.56104025 40.23784954 -49.36000061 39.03755188 C-46.84862187 36.53076398 -44.33242755 34.02895323 -41.81225586 31.53100586 C-38.57825393 28.32537685 -35.35307713 25.11104925 -32.13100338 21.89343548 C-29.65315575 19.41973784 -27.17248969 16.94888428 -24.69076729 14.47907448 C-23.50015318 13.29416425 -22.31001062 12.10878001 -21.12034416 10.92291832 C-19.46165419 9.27108179 -17.79962863 7.62268207 -16.13647461 5.9753418 C-15.64343842 5.48342346 -15.15040222 4.99150513 -14.64242554 4.48468018 C-9.87641974 -0.22121986 -6.56046881 -0.63561635 0 0 Z M-25.9016428 38.09414101 C-28.47668412 40.60756206 -31.06313648 43.10589893 -33.68334961 45.57226562 C-36.21891515 47.95957597 -38.71750491 50.38053287 -41.19511223 52.8278923 C-42.59684747 54.19528907 -44.03299657 55.52712351 -45.46961975 56.8578186 C-50.49861172 61.89953607 -52.56747884 65.12090991 -52.59936523 72.36914062 C-52.44088868 74.58277267 -52.24494828 76.79426158 -52 79 C-51.91753272 80.62193842 -51.84205896 82.24429276 -51.78125 83.8671875 C-51.69216622 85.20344427 -51.59863606 86.53941436 -51.5 87.875 C-51.45230469 88.57496094 -51.40460938 89.27492188 -51.35546875 89.99609375 C-51.24120413 91.66435726 -51.12129217 93.33223271 -51 95 C-48.66398745 93.0030641 -46.33093185 91.00285563 -44 89 C-43.30220428 88.4019455 -42.60440857 87.80389099 -41.88546753 87.18771362 C-18.11248034 68.94497257 -18.11248034 68.94497257 -4.08308411 44.17756653 C-3.60431993 36.54326167 -5.28302715 29.11202639 -8 22 C-12.97107477 22 -21.98233396 34.26718056 -25.9016428 38.09414101 Z M-17.38800049 82.20111084 C-19.78856507 84.91662159 -22.28656517 87.53947108 -24.77539062 90.17382812 C-33.68245812 98.03384587 -33.68245812 98.03384587 -39 107 C-36.81304846 107.1737153 -34.62538259 107.33843329 -32.4375 107.5 C-30.61025391 107.63921875 -30.61025391 107.63921875 -28.74609375 107.78125 C-28.03364502 107.81078262 -27.32119629 107.84031525 -26.5871582 107.8707428 C-24.59995556 107.97002558 -22.61639142 108.14435192 -20.63745117 108.35081482 C-13.73254014 108.80790767 -8.87822919 108.78501954 -3.34985352 104.06860352 C-1.57053917 102.29362431 0.1687089 100.47779688 1.87109375 98.62890625 C2.81045615 97.66403721 3.75315926 96.70241054 4.69898987 95.74388123 C7.15546667 93.23629771 9.56314079 90.6866541 11.96313477 88.12512207 C14.42828691 85.51240369 16.94035134 82.94559871 19.44726562 80.37304688 C28.5053511 72.71727244 28.5053511 72.71727244 34 64 C10.09282171 58.45563759 -1.64351773 64.13482944 -17.38800049 82.20111084 Z M-280 202 C-280.80179688 202.65613281 -281.60359375 203.31226563 -282.4296875 203.98828125 C-301.5248696 220.25785229 -312.40730308 243.55932155 -314.66967773 268.35742188 C-316.42418895 294.08697211 -308.05394705 317.0551154 -292 337 C-291.21625 338.051875 -290.4325 339.10375 -289.625 340.1875 C-272.07505101 358.99101678 -247.41834475 369.94890488 -221.875 371.03125 C-198.41004395 370.84201648 -175.69917266 363.79310791 -158 348 C-157.19433594 347.34773437 -156.38867188 346.69546875 -155.55859375 346.0234375 C-136.56261257 330.14886167 -126.1863461 306.3467183 -124 282 C-122.39781798 257.54564292 -130.5118459 232.97298878 -146 214 C-150.75085867 217.96372525 -155.23613112 222.09794782 -159.58984375 226.4921875 C-160.17923233 227.08299103 -160.76862091 227.67379456 -161.37586975 228.28250122 C-163.23213727 230.14430404 -165.08487085 232.00957745 -166.9375 233.875 C-168.20614672 235.14867011 -169.4750249 236.42210971 -170.74414062 237.6953125 C-173.83210554 240.79422043 -176.91690929 243.89624301 -180 247 C-179.37424072 248.31846924 -179.37424072 248.31846924 -178.73583984 249.66357422 C-178.19137207 250.8238916 -177.6469043 251.98420898 -177.0859375 253.1796875 C-176.54501465 254.32679199 -176.0040918 255.47389648 -175.44677734 256.65576172 C-169.93635236 269.39315649 -171.10173822 282.92949039 -176.03125 295.6640625 C-181.72594003 308.0923387 -190.94012252 315.32779103 -203.4375 320.3125 C-216.6687242 324.74765089 -229.68793755 323.04254752 -242.328125 317.44140625 C-246.08320595 315.4156389 -248.8908569 312.9063729 -252 310 C-252.66 310 -253.32 310 -254 310 C-254.27070313 309.42378906 -254.54140625 308.84757813 -254.8203125 308.25390625 C-256.0102711 305.98037607 -257.37477718 304.01682437 -258.875 301.9375 C-266.53546065 290.47490362 -268.32655403 277.8365403 -265.91796875 264.37109375 C-262.51710549 251.88196612 -255.4714695 241.22141762 -244.46484375 234.31640625 C-231.8546197 227.58162732 -219.07531762 226.43476844 -205.3125 229.85546875 C-200.40525944 231.55101295 -195.72653649 233.85157432 -191 236 C-180.11 225.11 -169.22 214.22 -158 203 C-169.93008583 191.06991417 -187.57497919 183.85950919 -204 181 C-205.27875 180.773125 -206.5575 180.54625 -207.875 180.3125 C-234.01943209 177.74717994 -259.81887378 184.9480031 -280 202 Z M-245.375 255.875 C-250.59717833 263.48404654 -252.88127418 271.83947932 -251.3125 281 C-249.05286497 290.65883209 -244.29726763 297.56567405 -236.125 303.3203125 C-228.66336846 307.51748024 -220.14572521 308.79403192 -211.8125 307 C-202.53419574 304.22257297 -195.99890665 299.2940059 -191 291 C-187.1940178 283.77609654 -185.49722 275.97426742 -187.89453125 268.0390625 C-188.87811239 265.33508326 -189.90453095 262.66042483 -191 260 C-194.55038072 261.50712301 -196.79113387 263.57166092 -199.4765625 266.31640625 C-200.311875 267.16267578 -201.1471875 268.00894531 -202.0078125 268.88085938 C-203.30332031 270.20827148 -203.30332031 270.20827148 -204.625 271.5625 C-206.34414185 273.31597382 -208.06539013 275.06738575 -209.7890625 276.81640625 C-210.92915771 277.98345093 -210.92915771 277.98345093 -212.09228516 279.17407227 C-214.7538016 281.72148479 -215.67428851 281.97631189 -219.4375 282.25 C-223 282 -223 282 -224.9375 280.9375 C-226.73584842 277.65815876 -226.60523685 275.69194477 -226 272 C-224.11661932 268.91746307 -221.55613832 266.53268751 -219 264 C-217.73109673 262.7194176 -216.46293434 261.43810087 -215.1953125 260.15625 C-211.48422417 256.41646883 -207.74887121 252.70187475 -204 249 C-204.495 247.515 -204.495 247.515 -205 246 C-219.15179184 239.29651966 -235.70067687 243.74635351 -245.375 255.875 Z " fill="#000000" transform="translate(456,0)"/>
</svg>
