<?xml version="1.0" encoding="UTF-8"?>
<svg version="1.1" xmlns="http://www.w3.org/2000/svg" width="512" height="512">
<path d="M0 0 C1.29493254 -0.00576172 1.29493254 -0.00576172 2.61602533 -0.01163983 C4.03939799 -0.01034011 4.03939799 -0.01034011 5.49152565 -0.00901413 C6.49919853 -0.01198525 7.50687141 -0.01495637 8.54507983 -0.01801753 C11.93752523 -0.02672179 15.32993542 -0.02821423 18.72239113 -0.02970505 C21.14818841 -0.03433195 23.57398496 -0.03935643 25.99978065 -0.04475021 C32.60096704 -0.05788736 39.20214608 -0.0643581 45.80334234 -0.06876087 C49.92430532 -0.07152299 54.04526595 -0.07576026 58.16622734 -0.08026505 C69.5738396 -0.09245714 80.98144997 -0.10275695 92.3890686 -0.10614014 C93.48427381 -0.10646949 93.48427381 -0.10646949 94.60160438 -0.10680549 C95.69944021 -0.10713291 95.69944021 -0.10713291 96.81945455 -0.10746694 C98.30256232 -0.1079104 99.78567008 -0.10835697 101.26877785 -0.10880661 C102.00445164 -0.10902804 102.74012543 -0.10924947 103.49809237 -0.10947761 C115.42206009 -0.11342671 127.34596674 -0.13088441 139.26991086 -0.15416613 C151.50919673 -0.17787091 163.74845194 -0.19034157 175.98776114 -0.19150805 C182.86086962 -0.19242525 189.73389851 -0.19818875 196.60698509 -0.21632767 C203.06986046 -0.23332382 209.53262494 -0.23498782 215.99551773 -0.22618866 C218.37033365 -0.22541567 220.74515754 -0.2297952 223.11995316 -0.23964691 C226.35654173 -0.25228857 229.59258791 -0.24653182 232.82917213 -0.23606491 C234.24585263 -0.24814952 234.24585263 -0.24814952 235.69115293 -0.26047826 C244.24974659 -0.19553923 248.11266883 3.15448075 254.0304966 9.13167191 C254.63434181 9.73361877 255.23818703 10.33556564 255.86033058 10.95575333 C257.84611948 12.9378507 259.82463888 14.92703279 261.80295753 16.91658401 C263.18310609 18.29792511 264.56362499 19.67889627 265.94449806 21.05951309 C268.83239433 23.94897127 271.71690569 26.84175213 274.59885597 29.73714066 C278.29836483 33.45367867 282.00446228 37.16356 285.71287346 40.87121296 C288.56123798 43.71984891 291.40699256 46.57107983 294.25186348 49.42320442 C295.61805744 50.79258594 296.98486267 52.16135789 298.35228157 53.52951622 C300.2579707 55.43736572 302.16033508 57.3484667 304.0617466 59.26057816 C304.63004189 59.82842026 305.19833717 60.39626236 305.78385353 60.9813118 C310.5267628 65.76343665 310.5267628 65.76343665 311.28733253 69.75642776 C310.73980244 73.45225592 310.1552643 74.1895016 307.73020077 76.86031055 C307.09155924 77.56437255 306.45291772 78.26843455 305.79492342 78.99383175 C302.65489911 82.33719393 299.45001658 85.60652983 296.20144081 88.84430313 C295.46999865 89.57730528 294.73855649 90.31030744 293.98494941 91.06552178 C291.55384461 93.50058874 289.11921302 95.93209725 286.68454933 98.3636055 C284.93288252 100.1166284 283.18142828 101.86986375 281.43017006 103.62329483 C277.1805154 107.8770257 272.92853775 112.12842133 268.67539182 116.37866043 C265.22026575 119.83152315 261.76612301 123.28536671 258.31267166 126.7399044 C257.82018324 127.23254606 257.32769481 127.72518772 256.82028249 128.23275791 C255.81971646 129.23364368 254.81915267 130.23453168 253.8185911 131.2354219 C244.45470978 140.60214929 235.08777512 149.96581842 225.71978072 159.32843191 C217.67862654 167.36511048 209.64010948 175.40441896 201.60349464 183.44563675 C192.26383233 192.79064585 182.9225563 202.13403696 173.5786832 211.47483593 C172.5834249 212.46977569 171.58816868 213.46471753 170.59291458 214.45966148 C170.10324929 214.9491725 169.613584 215.43868351 169.10908037 215.94302819 C165.65503313 219.39621121 162.20214923 222.85055484 158.74971008 226.30534554 C154.11048276 230.94766346 149.46862228 235.58733665 144.82495117 240.22521019 C143.11721319 241.93162095 141.4103348 243.63889244 139.70435905 245.34706497 C137.3846365 247.66950021 135.06188803 249.98886497 132.73830605 252.3074379 C132.05631777 252.99165689 131.37432949 253.67587589 130.67167491 254.3808288 C130.05196529 254.99793067 129.43225567 255.61503254 128.79376698 256.25083447 C128.25759917 256.78683991 127.72143137 257.32284536 127.16901606 257.8750934 C125.00011381 259.84722839 123.60916056 260.15993528 120.66233253 260.63142776 C111.34796707 259.42957416 103.15659679 247.61760059 96.70386696 241.12312698 C94.68715947 239.09351361 92.66722032 237.06716518 90.64646339 235.04158401 C85.63110309 230.01294075 80.62123246 224.97883986 75.61118507 219.94490433 C71.36647965 215.68038503 67.11967511 211.41797675 62.87012672 207.15828323 C60.89179639 205.17352791 58.91653124 203.18575753 56.94138527 201.19783401 C55.71440329 199.96721551 54.48727844 198.73673943 53.25998878 197.50642776 C52.45236595 196.69105545 52.45236595 196.69105545 51.62842751 195.85921097 C48.83488455 193.0652901 45.97805002 190.40329707 42.98240089 187.82649612 C38.16225008 183.65071291 33.6877105 179.15657516 29.19358253 174.63533401 C27.7742321 173.21374207 26.35488152 171.79215027 24.93552589 170.37056351 C23.42512784 168.85681563 21.91598531 167.34182641 20.40720558 165.82646561 C17.24829835 162.65392313 14.08547941 159.4852993 10.92209816 156.31721878 C3.63775225 149.02088107 -3.64154872 141.71951706 -10.92079735 134.41809464 C-17.59783531 127.72082214 -24.27596048 121.02464315 -30.95815849 114.33251858 C-34.09596531 111.18976096 -37.23132526 108.04458944 -40.36476707 104.89748001 C-41.84786685 103.40868523 -43.33213302 101.92106498 -44.81691551 100.43394852 C-46.61783366 98.63018628 -48.41697597 96.8246483 -50.21388817 95.01689529 C-54.49785117 90.73255815 -58.84066263 86.60013668 -63.46425438 82.68283463 C-67.11923035 79.43969098 -70.45725023 76.11439802 -72.21266747 71.50642776 C-72.21266747 66.23849417 -69.59897998 63.17004064 -65.99909019 59.5223732 C-65.42189735 58.9528241 -64.84470451 58.38327499 -64.25002098 57.79646683 C-63.3350988 56.87606865 -63.3350988 56.87606865 -62.40169334 55.93707657 C-60.38897591 53.91627054 -58.36562731 51.90649943 -56.34157372 49.89705276 C-54.93863238 48.49463013 -53.53620926 47.09168891 -52.13428307 45.6882515 C-49.19757778 42.75163585 -46.25577847 39.82025174 -43.31007957 36.89265823 C-39.5307376 33.13603429 -35.76260148 29.3684048 -31.99797726 25.59703827 C-29.1047955 22.70051913 -26.20665666 19.80900295 -23.30688858 16.91907883 C-21.9152591 15.53130325 -20.52498125 14.14217093 -19.13607025 12.75167465 C-17.19716787 10.81240236 -15.2519111 8.87974376 -13.30470848 6.94881058 C-12.44195557 6.08234154 -12.44195557 6.08234154 -11.5617733 5.19836807 C-7.75735081 1.44467458 -5.31047943 0.00886764 0 0 Z M18.78733253 17.13142776 C23.520013 22.69680678 23.520013 22.69680678 28.49778175 27.95540237 C29.15801338 28.61555847 29.81824501 29.27571457 30.49848366 29.9558754 C31.18935066 30.64158112 31.88021767 31.32728683 32.59202003 32.03377151 C33.67798973 33.11761879 33.67798973 33.11761879 34.78589821 34.22336197 C37.07568518 36.50759699 39.36894247 38.78831089 41.66233253 41.06892776 C43.22506414 42.62663816 44.78756643 44.18457863 46.34983253 45.74275589 C50.15968563 49.54164378 53.97238633 53.3376549 57.78733253 57.13142776 C61.00755223 55.71377701 63.15905827 54.0080697 65.63791847 51.52376175 C66.37838417 50.78637268 67.11884987 50.04898361 67.88175392 49.28924942 C68.67043861 48.49337921 69.45912331 47.697509 70.27170753 46.87752151 C71.08730141 46.06146942 71.90289528 45.24541733 72.74320412 44.40463638 C74.46357404 42.68124787 76.18151534 40.95543207 77.89719582 39.22737503 C80.53581591 36.57045491 83.18239416 33.92166734 85.83030128 31.27400589 C87.49874371 29.60064992 89.16672852 27.92683752 90.83420753 26.25252151 C91.63098915 25.45462708 92.42777077 24.65673264 93.24869728 23.83465958 C93.97655434 23.10042267 94.70441139 22.36618576 95.45432472 21.60969925 C96.42217903 20.63612724 96.42217903 20.63612724 97.40958595 19.64288712 C98.89960933 18.34911495 98.89960933 18.34911495 98.78733253 17.13142776 C72.38733253 17.13142776 45.98733253 17.13142776 18.78733253 17.13142776 Z M140.78733253 17.13142776 C145.520013 22.69680678 145.520013 22.69680678 150.49778175 27.95540237 C151.15801338 28.61555847 151.81824501 29.27571457 152.49848366 29.9558754 C153.18935066 30.64158112 153.88021767 31.32728683 154.59202003 32.03377151 C155.67798973 33.11761879 155.67798973 33.11761879 156.78589821 34.22336197 C159.07568518 36.50759699 161.36894247 38.78831089 163.66233253 41.06892776 C165.22506414 42.62663816 166.78756643 44.18457863 168.34983253 45.74275589 C172.15968563 49.54164378 175.97238633 53.3376549 179.78733253 57.13142776 C183.00755223 55.71377701 185.15905827 54.0080697 187.63791847 51.52376175 C188.37838417 50.78637268 189.11884987 50.04898361 189.88175392 49.28924942 C190.67043861 48.49337921 191.45912331 47.697509 192.27170753 46.87752151 C193.08730141 46.06146942 193.90289528 45.24541733 194.74320412 44.40463638 C196.46357404 42.68124787 198.18151534 40.95543207 199.89719582 39.22737503 C202.53581591 36.57045491 205.18239416 33.92166734 207.83030128 31.27400589 C209.49874371 29.60064992 211.16672852 27.92683752 212.83420753 26.25252151 C213.63098915 25.45462708 214.42777077 24.65673264 215.24869728 23.83465958 C215.97655434 23.10042267 216.70441139 22.36618576 217.45432472 21.60969925 C218.42217903 20.63612724 218.42217903 20.63612724 219.40958595 19.64288712 C220.89960933 18.34911495 220.89960933 18.34911495 220.78733253 17.13142776 C194.38733253 17.13142776 167.98733253 17.13142776 140.78733253 17.13142776 Z M-6.90627098 24.69563675 C-7.68700478 25.47321838 -8.46773857 26.25080002 -9.27213097 27.05194473 C-10.12004707 27.90188507 -10.96796318 28.75182541 -11.84157372 29.62752151 C-12.70580452 30.49079559 -13.57003532 31.35406967 -14.46045494 32.24350357 C-16.29176954 34.07413596 -18.12181507 35.90603861 -19.95070457 37.73909378 C-22.76282313 40.55655995 -25.58022125 43.36866677 -28.39821434 46.18025589 C-30.17132154 47.95402387 -31.94411853 49.728102 -33.71657372 51.50252151 C-34.56651405 52.35043762 -35.41645439 53.19835373 -36.2921505 54.07196426 C-37.45852295 55.24306496 -37.45852295 55.24306496 -38.64845848 56.43782425 C-39.33827309 57.12843445 -40.02808769 57.81904465 -40.73880577 58.53058243 C-42.32555518 59.89137496 -42.32555518 59.89137496 -42.21266747 61.13142776 C-16.14266747 61.13142776 9.92733253 61.13142776 36.78733253 61.13142776 C32.05904634 55.5722753 32.05904634 55.5722753 27.09275246 50.30745316 C26.43574852 49.64729706 25.77874458 48.98714096 25.10183144 48.30698013 C24.41410149 47.62127441 23.72637154 46.9355687 23.01780128 46.22908401 C22.29619316 45.50651917 21.57458504 44.78395432 20.83111 44.03949356 C19.31880336 42.52651085 17.80525096 41.01477241 16.29050636 39.5042305 C13.96080266 37.17993043 11.63654402 34.85027976 9.31272316 32.52009964 C7.83973682 31.04777326 6.36644076 29.57575667 4.89280128 28.10408401 C3.84602463 27.05427101 3.84602463 27.05427101 2.77810097 25.98324966 C2.13685783 25.34515869 1.4956147 24.70706772 0.83493996 24.04964066 C0.26901634 23.48451263 -0.29690727 22.91938461 -0.87998009 22.3371315 C-3.59896131 19.87722539 -4.6964997 22.48841116 -6.90627098 24.69563675 Z M115.09372902 24.69563675 C114.31299522 25.47321838 113.53226143 26.25080002 112.72786903 27.05194473 C111.87995293 27.90188507 111.03203682 28.75182541 110.15842628 29.62752151 C109.29419548 30.49079559 108.42996468 31.35406967 107.53954506 32.24350357 C105.70823046 34.07413596 103.87818493 35.90603861 102.04929543 37.73909378 C99.23717687 40.55655995 96.41977875 43.36866677 93.60178566 46.18025589 C91.82867846 47.95402387 90.05588147 49.728102 88.28342628 51.50252151 C87.43348595 52.35043762 86.58354561 53.19835373 85.7078495 54.07196426 C84.54147705 55.24306496 84.54147705 55.24306496 83.35154152 56.43782425 C82.66172691 57.12843445 81.97191231 57.81904465 81.26119423 58.53058243 C79.67444482 59.89137496 79.67444482 59.89137496 79.78733253 61.13142776 C105.85733253 61.13142776 131.92733253 61.13142776 158.78733253 61.13142776 C154.05904634 55.5722753 154.05904634 55.5722753 149.09275246 50.30745316 C148.43574852 49.64729706 147.77874458 48.98714096 147.10183144 48.30698013 C146.41410149 47.62127441 145.72637154 46.9355687 145.01780128 46.22908401 C144.29619316 45.50651917 143.57458504 44.78395432 142.83111 44.03949356 C141.31880336 42.52651085 139.80525096 41.01477241 138.29050636 39.5042305 C135.96080266 37.17993043 133.63654402 34.85027976 131.31272316 32.52009964 C129.83973682 31.04777326 128.36644076 29.57575667 126.89280128 28.10408401 C125.84602463 27.05427101 125.84602463 27.05427101 124.77810097 25.98324966 C124.13685783 25.34515869 123.4956147 24.70706772 122.83493996 24.04964066 C122.26901634 23.48451263 121.70309273 22.91938461 121.12001991 22.3371315 C118.40103869 19.87722539 117.3035003 22.48841116 115.09372902 24.69563675 Z M237.09372902 24.69563675 C236.31299522 25.47321838 235.53226143 26.25080002 234.72786903 27.05194473 C233.87995293 27.90188507 233.03203682 28.75182541 232.15842628 29.62752151 C231.29419548 30.49079559 230.42996468 31.35406967 229.53954506 32.24350357 C227.70823046 34.07413596 225.87818493 35.90603861 224.04929543 37.73909378 C221.23717687 40.55655995 218.41977875 43.36866677 215.60178566 46.18025589 C213.82867846 47.95402387 212.05588147 49.728102 210.28342628 51.50252151 C209.43348595 52.35043762 208.58354561 53.19835373 207.7078495 54.07196426 C206.54147705 55.24306496 206.54147705 55.24306496 205.35154152 56.43782425 C204.66172691 57.12843445 203.97191231 57.81904465 203.26119423 58.53058243 C201.67444482 59.89137496 201.67444482 59.89137496 201.78733253 61.13142776 C227.85733253 61.13142776 253.92733253 61.13142776 280.78733253 61.13142776 C276.05904634 55.5722753 276.05904634 55.5722753 271.09275246 50.30745316 C270.43574852 49.64729706 269.77874458 48.98714096 269.10183144 48.30698013 C268.41410149 47.62127441 267.72637154 46.9355687 267.01780128 46.22908401 C266.29619316 45.50651917 265.57458504 44.78395432 264.83111 44.03949356 C263.31880336 42.52651085 261.80525096 41.01477241 260.29050636 39.5042305 C257.96080266 37.17993043 255.63654402 34.85027976 253.31272316 32.52009964 C251.83973682 31.04777326 250.36644076 29.57575667 248.89280128 28.10408401 C247.84602463 27.05427101 247.84602463 27.05427101 246.77810097 25.98324966 C246.13685783 25.34515869 245.4956147 24.70706772 244.83493996 24.04964066 C244.26901634 23.48451263 243.70309273 22.91938461 243.12001991 22.3371315 C240.40103869 19.87722539 239.3035003 22.48841116 237.09372902 24.69563675 Z M-42.21266747 78.13142776 C-37.18223768 84.00940033 -37.18223768 84.00940033 -31.89479637 89.57869339 C-31.10022026 90.37642166 -30.30564415 91.17414993 -29.48698997 91.99605179 C-28.64622917 92.83478836 -27.80546837 93.67352493 -26.93922997 94.53767776 C-26.0566552 95.42120926 -25.17408043 96.30474075 -24.26476097 97.21504593 C-21.93203455 99.54862259 -19.59690406 101.87976127 -17.26094627 104.21010208 C-15.84030869 105.62879017 -14.42163206 107.04940823 -13.00368309 108.47078323 C-10.25572546 111.2249558 -7.50428472 113.97560037 -4.75172997 116.72517776 C-3.91501762 117.56391434 -3.07830528 118.40265091 -2.21623802 119.26680374 C-1.41535759 120.06453201 -0.61447716 120.86226028 0.21067238 121.68416214 C0.90317085 122.37586502 1.59566933 123.0675679 2.3091526 123.78023148 C4.34194782 125.70886487 6.40764628 127.54372604 8.5289402 129.37204361 C13.04702236 133.30247525 17.27513803 137.48588761 21.49827003 141.72883987 C22.32849174 142.55891556 23.15871346 143.38899124 24.0140934 144.24422073 C26.7325528 146.96337169 29.44746209 149.68603765 32.16233253 152.40877151 C34.05640112 154.30470698 35.95066626 156.20044399 37.84519386 158.09592056 C42.30581184 162.55963275 46.76387703 167.02588531 51.22100544 171.49308163 C56.30011466 176.58341165 61.38210172 181.67086446 66.46431923 186.75809085 C76.90850354 197.21269626 87.34911253 207.6708673 97.78733253 218.13142776 C99.06141582 216.1243527 99.06141582 216.1243527 98.19198132 213.73013496 C97.8518397 212.7143191 97.51169809 211.69850323 97.16124916 210.65190506 C96.77557274 209.48800247 96.38989632 208.32409988 95.99253273 207.12492752 C95.55456037 205.82870779 95.11644519 204.53253631 94.67820168 203.23640823 C94.22450886 201.87673936 93.7714756 200.51685026 93.31905556 199.15675735 C92.08607521 195.45637729 90.84384637 191.75916051 89.59998822 188.06242514 C88.30272049 184.20180384 87.01390505 180.33836342 85.72420692 176.47520828 C83.27938936 169.15631796 80.82693327 161.84001099 78.3717522 154.52459157 C75.05542718 144.64186518 71.75085575 134.75521081 68.44563961 124.86876488 C63.2358345 109.28641444 58.01029322 93.70938787 52.78733253 78.13142776 C21.43733253 78.13142776 -9.91266747 78.13142776 -42.21266747 78.13142776 Z M70.78733253 78.13142776 C72.3735173 85.41449884 72.3735173 85.41449884 74.4445591 92.45955276 C74.76013771 93.40924942 75.07571632 94.35894608 75.40085793 95.33742142 C75.7398008 96.34194351 76.07874367 97.34646561 76.42795753 98.38142776 C76.78655861 99.45572037 77.14515968 100.53001297 77.51462746 101.63685989 C78.68432211 105.13658781 79.86067031 108.63403692 81.03733253 112.13142776 C81.85628004 114.57632679 82.67496224 117.02131471 83.49338722 119.4663887 C88.83778223 135.41430342 94.24923453 151.33886505 99.70676613 167.24837112 C106.19221045 186.16739705 112.49110603 205.14875315 118.78733253 224.13142776 C121.026033 223.28344588 121.026033 223.28344588 121.78306198 220.76227188 C122.1351869 219.70258698 122.48731182 218.64290207 122.85010719 217.5511055 C123.25673592 216.33953781 123.66336464 215.12797012 124.08231544 213.87968826 C124.52856212 212.52484569 124.97466316 211.16995514 125.42063332 209.81502151 C125.89318873 208.39758184 126.36639965 206.98036055 126.8402195 205.56334305 C128.12784531 201.7061887 129.40612223 197.84599315 130.68271685 193.98517609 C132.01750215 189.95334824 133.3605097 185.92426118 134.70258522 181.8948555 C136.95534372 175.1273664 139.20258803 168.35806743 141.44602394 161.58748245 C144.61394665 152.0268933 147.79221461 142.46976678 150.97234559 132.9132328 C153.17004677 126.3076873 155.36527345 119.70131913 157.56003141 113.09479523 C158.09348475 111.48906695 158.62700779 109.88336183 159.16059923 108.27767944 C160.6811498 103.70175382 162.20016544 99.12532473 163.71665001 94.54804993 C164.17732726 93.15827363 164.63851265 91.76866566 165.10022926 90.37923431 C165.72773327 88.49053923 166.35319103 86.60116466 166.97852516 84.71175003 C167.50558146 83.12222267 167.50558146 83.12222267 168.04328537 81.50058365 C168.83727036 79.38629253 168.83727036 79.38629253 168.78733253 78.13142776 C136.44733253 78.13142776 104.10733253 78.13142776 70.78733253 78.13142776 Z M186.78733253 78.13142776 C183.56649181 86.13149202 183.56649181 86.13149202 180.66713905 94.21112442 C180.11401039 95.85337997 180.11401039 95.85337997 179.54970741 97.52881241 C178.96579987 99.27718147 178.96579987 99.27718147 178.37009621 101.06087112 C177.94446834 102.32847382 177.51860915 103.59599886 177.09253883 104.86345291 C175.94732563 108.273113 174.80597855 111.68405399 173.66587424 115.09542537 C172.95280158 117.22874996 172.23903323 119.36184058 171.52505875 121.49486351 C169.28888492 128.1761323 167.05507083 134.85818285 164.82474345 141.54140562 C162.25363217 149.2457424 159.67465055 156.9473854 157.08893412 164.64683241 C155.08594343 170.61264814 153.08983175 176.580737 151.09897977 182.55061442 C149.91123487 186.11175144 148.72058277 189.67185285 147.52276611 193.22961617 C146.19108988 197.18571932 144.87368944 201.14643168 143.55759621 205.10774612 C143.15820335 206.28749512 142.7588105 207.46724411 142.34731483 208.68274307 C141.99266151 209.75784134 141.63800819 210.83293961 141.2726078 211.94061661 C140.9597845 212.8761534 140.64696119 213.8116902 140.32465839 214.77557659 C139.54277996 217.26321926 139.54277996 217.26321926 140.78733253 220.13142776 C159.1744756 201.7676089 177.55878232 183.40095479 195.93968391 165.03088856 C204.47364575 156.5020907 213.00854561 147.97423547 221.54563332 139.44856644 C228.98351454 132.02062895 236.41965698 124.590956 243.85368586 117.15916294 C247.79274202 113.22141441 251.73268421 109.2845614 255.67470741 105.34978294 C259.38019778 101.6510479 263.08337004 97.95000822 266.784729 94.24713898 C268.14807483 92.8840697 269.51228659 91.52186593 270.87739944 90.16056633 C272.73204048 88.31085492 274.58362375 86.45813754 276.43442726 84.60458755 C277.25736283 83.78602125 277.25736283 83.78602125 278.09692335 82.95091826 C280.64542097 80.88996498 280.64542097 80.88996498 281.78733253 78.13142776 C250.43733253 78.13142776 219.08733253 78.13142776 186.78733253 78.13142776 Z " fill="#000000" transform="translate(201.21266746520996,99.86857223510742)"/>
<path d="M0 0 C0.86936691 -0.00570007 1.73873383 -0.01140015 2.63444519 -0.01727295 C4.47446477 -0.02671778 6.31450123 -0.03325488 8.15454102 -0.03710938 C10.95945019 -0.04680237 13.76362254 -0.0778251 16.56835938 -0.109375 C18.35806858 -0.11590668 20.14778301 -0.1211565 21.9375 -0.125 C23.18935844 -0.1435202 23.18935844 -0.1435202 24.46650696 -0.16241455 C30.95595511 -0.13778368 35.03208881 1.30456505 39.98046875 5.703125 C43.11694726 9.28767187 43.35095165 12.28220313 43.73046875 16.890625 C43.81425781 17.88449219 43.89804688 18.87835938 43.984375 19.90234375 C44.04496094 20.66160156 44.10554688 21.42085938 44.16796875 22.203125 C45.27084229 21.74462158 46.37371582 21.28611816 47.51000977 20.8137207 C51.67337031 19.08450446 55.8395745 17.36222909 60.0065918 15.6418457 C61.79641508 14.90182107 63.58550206 14.16001264 65.3737793 13.41625977 C89.11499422 3.54571821 113.71482452 -6.09498228 139.16796875 4.203125 C146.08528882 7.41039621 152.61049672 11.32878705 159.16796875 15.203125 C161.0888388 16.31813931 163.01073984 17.43137912 164.93359375 18.54296875 C170.00089273 21.47890381 175.05399879 24.43839439 180.10351562 27.40478516 C185.11890757 30.3480115 190.14384129 33.27484438 195.16796875 36.203125 C197.16801599 37.36971068 199.16801596 38.5363774 201.16796875 39.703125 C202.15796875 40.280625 203.14796875 40.858125 204.16796875 41.453125 C207.16796875 43.203125 210.16796875 44.953125 213.16796875 46.703125 C214.15901611 47.28118896 215.15006348 47.85925293 216.17114258 48.45483398 C218.16072864 49.6155204 220.15015064 50.77648811 222.1394043 51.93774414 C227.29739216 54.9482972 232.45858443 57.95314826 237.625 60.94921875 C238.68912109 61.56732422 239.75324219 62.18542969 240.84960938 62.82226562 C242.86155935 63.99077805 244.87449882 65.15758933 246.88867188 66.32226562 C263.66758993 76.07581674 279.3590184 85.2650868 284.74609375 105.26953125 C285.69580931 111.87357185 285.33145734 118.55268123 285.16796875 125.203125 C287.04610764 124.66016281 287.04610764 124.66016281 288.96218872 124.10623169 C302.24044291 120.28172053 315.56029972 116.63578158 328.91015625 113.0703125 C331.01901218 112.50569496 333.1278268 111.94092313 335.23660278 111.37600708 C340.72435774 109.90634592 346.21267026 108.43877801 351.70111084 106.97167969 C357.26593765 105.48374178 362.83020484 103.99371415 368.39453125 102.50390625 C374.6688749 100.82424874 380.94329054 99.14486106 387.21798706 97.46652222 C388.16808718 97.21236605 389.11818729 96.95820988 390.09707832 96.69635201 C391.93438722 96.20524401 393.77184983 95.71471067 395.6094799 95.22480583 C399.61828382 94.15572829 403.62506193 93.0808451 407.62554932 91.98101807 C408.64689563 91.70234736 408.64689563 91.70234736 409.6888752 91.41804695 C411.45978835 90.93424693 413.22948334 90.44599366 414.99905396 89.95730591 C429.43462918 86.52173382 441.50813328 88.64718303 454.16796875 96.203125 C463.18649753 102.20411201 468.69028479 111.39029743 471.51171875 121.703125 C474.28990376 136.52011175 471.21924239 148.81063247 462.8984375 161.07421875 C451.12075129 176.31393376 428.26867136 179.08006197 410.7227478 183.73135376 C407.15913734 184.67610514 403.59665796 185.62502403 400.03442383 186.57495117 C396.08722797 187.6275084 392.14000167 188.67994535 388.19239807 189.73097229 C373.02863104 193.76881309 357.87303513 197.83705472 342.71751022 201.90570164 C336.59518357 203.54916001 330.47226031 205.19038253 324.34912109 206.83081055 C308.19169614 211.16052984 292.03794785 215.50261207 275.89748573 219.8951931 C271.2644428 221.1552048 266.63027329 222.41106817 261.99610043 223.66691685 C257.69342299 224.83355139 253.39280326 226.00739897 249.09366512 227.18700504 C247.08899142 227.73563904 245.0833136 228.28040519 243.07713318 228.82350159 C240.67496093 229.47383641 238.27435163 230.12999206 235.87586975 230.79380798 C225.48363663 233.58794682 214.84072471 235.80654343 204.04296875 235.015625 C202.21378906 234.90154297 202.21378906 234.90154297 200.34765625 234.78515625 C190.24367133 233.60170469 181.34711699 230.27024483 172.29296875 225.765625 C171.20854492 225.23557861 170.12412109 224.70553223 169.00683594 224.15942383 C161.15112809 220.28257355 153.43884686 216.17360479 145.77783203 211.92724609 C137.97793388 207.60922024 130.08972799 203.47912246 122.16796875 199.390625 C121.27229187 198.92757462 121.27229187 198.92757462 120.35852051 198.45516968 C116.30131793 196.35869619 112.23515706 194.28013856 108.16796875 192.203125 C106.93439891 191.56340598 105.70092014 190.92351133 104.4675293 190.28344727 C86.1339237 180.84107377 69.27500687 178.77775005 49.43359375 185.0703125 C47.65889832 185.73110335 45.90857523 186.4571508 44.16796875 187.203125 C44.1421875 187.98816406 44.11640625 188.77320313 44.08984375 189.58203125 C43.73231252 196.20448464 43.41045656 200.98160154 39.16796875 206.203125 C33.56336296 210.10482273 28.30889201 210.78890646 21.62890625 210.69921875 C20.74441803 210.70067398 19.85992981 210.70212921 18.94863892 210.70362854 C17.09137657 210.70197841 15.23409928 210.69051732 13.37695312 210.66967773 C10.54367805 210.64063227 7.71226751 210.64910555 4.87890625 210.66210938 C3.06639722 210.65587343 1.25389404 210.64748361 -0.55859375 210.63671875 C-1.39935455 210.63965439 -2.24011536 210.64259003 -3.10635376 210.64561462 C-8.76783138 210.55523793 -13.13276754 209.66516126 -17.4765625 205.703125 C-21.42166606 200.6365037 -21.98082117 197.0645387 -21.97920227 190.82818604 C-21.98287896 190.07102098 -21.98655565 189.31385593 -21.99034375 188.53374648 C-22.00138328 185.98896219 -22.00522488 183.44421872 -22.0090332 180.89941406 C-22.01529763 179.07783885 -22.02194442 177.25626491 -22.02894592 175.43469238 C-22.04635699 170.48001703 -22.05690792 165.52535133 -22.06515145 160.57065296 C-22.07030126 157.47550349 -22.076377 154.38035701 -22.08266258 151.28520966 C-22.10171475 141.60227907 -22.11594598 131.91935611 -22.12427455 122.23641038 C-22.13404884 111.05706091 -22.16037331 99.87790934 -22.20077544 88.69862962 C-22.23092825 80.05903907 -22.24574262 71.41950527 -22.24905556 62.77986312 C-22.25140693 57.61914656 -22.26037875 52.45864141 -22.28551674 47.29798126 C-22.3087879 42.44210672 -22.3130345 37.58658295 -22.30275536 32.73066711 C-22.30225966 30.95010461 -22.30859007 29.1695249 -22.3223114 27.3890152 C-22.34002224 24.95425677 -22.33292895 22.52075829 -22.31977844 20.08599854 C-22.33074769 19.3847184 -22.34171693 18.68343827 -22.35301858 17.96090722 C-22.28279582 12.55972804 -20.81206719 9.55509686 -17.83203125 5.203125 C-11.90097719 0.60353205 -7.30514055 0.03693111 0 0 Z M-4.83203125 17.203125 C-4.83203125 75.283125 -4.83203125 133.363125 -4.83203125 193.203125 C5.39796875 193.203125 15.62796875 193.203125 26.16796875 193.203125 C26.16796875 135.123125 26.16796875 77.043125 26.16796875 17.203125 C15.93796875 17.203125 5.70796875 17.203125 -4.83203125 17.203125 Z M75.16796875 28.203125 C64.60796875 32.493125 54.04796875 36.783125 43.16796875 41.203125 C43.16796875 83.113125 43.16796875 125.023125 43.16796875 168.203125 C48.11796875 167.213125 48.11796875 167.213125 53.16796875 166.203125 C91.35793885 159.01755571 121.54547856 178.83113786 153.79296875 196.515625 C154.66123291 196.99153076 155.52949707 197.46743652 156.42407227 197.95776367 C157.27928467 198.42674072 158.13449707 198.89571777 159.015625 199.37890625 C160.73299405 200.32045637 162.45044324 201.26186032 164.16796875 202.203125 C165.07788574 202.70247559 165.98780273 203.20182617 166.92529297 203.71630859 C196.00424238 219.59644603 216.26142265 218.30481471 247.45703125 209.8828125 C249.44692226 209.34938421 251.43692587 208.81637582 253.42703247 208.28375244 C258.77365917 206.85152595 264.11869681 205.41345312 269.46342468 203.97415924 C275.06622017 202.46635622 280.67039568 200.96369943 286.27441406 199.46044922 C295.57273376 196.96551215 304.87014378 194.4672104 314.16699219 191.96679688 C326.6655661 188.60546055 339.16666988 185.25361571 351.6684227 181.90412521 C359.06339206 179.92249336 366.45781519 177.93882463 373.85223389 175.95513916 C377.86806187 174.87782839 381.88406538 173.80117562 385.90020752 172.72503662 C390.62761778 171.45813897 395.35444983 170.18910495 400.08086777 168.91851044 C401.79435383 168.45821149 403.50802092 167.99858569 405.22189713 167.53974152 C410.54305273 166.11486107 415.85785502 164.66859424 421.16796875 163.203125 C421.93669815 162.99305565 422.70542755 162.7829863 423.49745178 162.56655121 C425.79596019 161.93484749 428.09020499 161.28946598 430.38378906 160.64013672 C431.06506237 160.45445192 431.74633568 160.26876713 432.44825363 160.07745552 C441.63430323 157.43294511 448.44843309 152.63016718 453.2734375 144.29296875 C456.1592311 137.69493361 456.27136703 129.93465705 454.16796875 123.078125 C450.88943045 115.6324726 445.17740922 110.00554993 437.734375 106.859375 C428.31626261 104.45109055 421.11894501 106.0420767 411.8828125 108.52734375 C410.4732861 108.89455621 409.06344163 109.26054965 407.65330505 109.62541199 C403.91152956 110.59870341 400.17560706 111.5927229 396.44124603 112.59404755 C394.2019257 113.19402694 391.96164131 113.7902583 389.7210083 114.38531494 C379.84090674 117.01132086 369.97329721 119.68233222 360.10931015 122.36815262 C353.61807318 124.13493567 347.12532827 125.89617847 340.63281441 127.65826225 C339.0317537 128.09287039 337.43073385 128.52762909 335.82975578 128.96254158 C326.03700852 131.62265599 316.23846756 134.25791205 306.42578125 136.84375 C305.44276535 137.10359177 304.45974945 137.36343353 303.44694519 137.63114929 C299.10887976 138.77770563 294.76935633 139.9177457 290.42602539 141.04418945 C288.95839972 141.43143833 287.49086336 141.8190259 286.0234375 142.20703125 C284.80293701 142.52486572 283.58243652 142.8427002 282.32495117 143.17016602 C277.81009371 144.64741928 274.95774489 146.18106177 272.04296875 149.953125 C265.7333796 157.9095566 255.89371675 161.55905327 246.35546875 163.890625 C227.56449737 165.7328771 214.97210276 159.46702542 199.16796875 150.203125 C197.86375977 149.43983887 197.86375977 149.43983887 196.53320312 148.66113281 C192.9630896 146.5659771 189.39788236 144.46305855 185.84277344 142.3425293 C180.6363424 139.23749463 175.40528568 136.181963 170.13671875 133.18359375 C169.54525055 132.84613129 168.95378235 132.50866882 168.34439087 132.16098022 C165.44896435 130.50910513 162.55057743 128.86332312 159.64599609 127.22753906 C158.59879395 126.63038086 157.5515918 126.03322266 156.47265625 125.41796875 C155.54437012 124.89323975 154.61608398 124.36851074 153.65966797 123.82788086 C149.95181192 121.41010876 147.54897783 119.50944185 146.29296875 115.203125 C146.1628246 112.07966546 146.38872299 110.73152687 148.16796875 108.203125 C151.54045404 106.51688235 154.54671145 106.53045437 158.16796875 107.203125 C162.65064676 109.16838772 166.79521508 111.68042402 170.98046875 114.203125 C172.21222115 114.92798704 173.44490476 115.65126876 174.6784668 116.37304688 C177.88259 118.25365539 181.07400487 120.15472447 184.26171875 122.06298828 C187.33026942 123.89830227 190.40558001 125.72220685 193.48046875 127.546875 C194.6602557 128.24728402 195.84002478 128.94772314 197.01977539 129.64819336 C197.59357941 129.98881805 198.16738342 130.32944275 198.75857544 130.6803894 C200.46777524 131.69558556 202.17615163 132.71216759 203.88452148 133.72875977 C222.96062306 146.16865818 222.96062306 146.16865818 244.84375 147.625 C253.07083951 145.06494386 259.88843093 140.21786802 264.64453125 132.9453125 C268.66124967 125.11415644 269.513563 117.00701346 267.51953125 108.40625 C262.23030082 93.84956454 249.00001223 87.55839412 236.29296875 80.328125 C233.97186271 78.99875223 231.65133325 77.66844807 229.33203125 76.3359375 C228.73992859 75.99588684 228.14782593 75.65583618 227.53778076 75.30548096 C221.21193496 71.66522687 214.93906069 67.93675452 208.66796875 64.203125 C196.6616452 57.06266321 184.58088098 50.05898507 172.46777344 43.1015625 C169.02352235 41.12002237 165.58343386 39.13142501 162.14453125 37.140625 C160.9753586 36.46424505 159.8061693 35.78789386 158.63696289 35.11157227 C156.44291802 33.84213026 154.24935747 32.57185062 152.05639648 31.30053711 C147.13918769 28.45838648 142.20847593 25.64234738 137.2421875 22.88671875 C136.39100342 22.41419678 135.53981934 21.9416748 134.6628418 21.45483398 C114.18316896 11.1799262 94.52963291 20.2873065 75.16796875 28.203125 Z " fill="#000000" transform="translate(21.83203125,274.796875)"/>
<path d="M0 0 C2.89149428 2.20132689 3.89155835 3.36979486 4.5146637 6.99095154 C4.52086227 8.15723587 4.52706085 9.3235202 4.53344727 10.52514648 C4.54206284 11.17118835 4.55067841 11.81723022 4.55955505 12.48284912 C4.58220756 14.61267476 4.57547835 16.74118366 4.56640625 18.87109375 C4.5716426 20.35555919 4.57791913 21.84002128 4.58518982 23.32447815 C4.59559287 26.43400744 4.59103502 29.5430791 4.57641602 32.65258789 C4.55923588 36.63207601 4.58271205 40.61011922 4.61790562 44.58944607 C4.63989774 47.65478533 4.63843383 50.71977988 4.6301403 53.78517342 C4.6293216 55.2519597 4.63616973 56.7187715 4.65091133 58.18548393 C4.66839164 60.2397039 4.65379257 62.29134154 4.63110352 64.34545898 C4.62966087 66.09607887 4.62966087 66.09607887 4.62818909 67.88206482 C3.80740981 71.95589647 2.22220287 73.45504848 -1 76 C-4.5625 76.5625 -4.5625 76.5625 -8 76 C-10.36497439 74.13291495 -11.66030715 72.67938569 -13 70 C-13.11203211 67.96405896 -13.1593206 65.92444249 -13.17700195 63.88549805 C-13.18983719 62.60043869 -13.20267242 61.31537933 -13.21589661 59.99137878 C-13.22406418 58.58149602 -13.23150788 57.1716089 -13.23828125 55.76171875 C-13.24235678 55.0526771 -13.2464323 54.34363544 -13.25063133 53.61310768 C-13.27149266 49.85966915 -13.28579363 46.10626718 -13.29516602 42.3527832 C-13.30622617 38.47888784 -13.34062044 34.60556759 -13.38033772 30.73187542 C-13.40650477 27.75068608 -13.41485791 24.76963369 -13.41844749 21.78833961 C-13.4233139 20.36060518 -13.43492961 18.93287689 -13.45348549 17.50525475 C-13.47787217 15.50453942 -13.47449259 13.50354438 -13.4699707 11.50268555 C-13.47583694 10.365103 -13.48170319 9.22752045 -13.48774719 8.0554657 C-12.88960307 4.30842442 -11.6623863 2.65986387 -9 0 C-5.41563853 -1.19478716 -3.63093708 -0.96330984 0 0 Z " fill="#000000" transform="translate(325,3)"/>
<path d="M0 0 C4.24727747 4.59114895 7.23632578 10.16072807 10.4375 15.5 C11.68021997 17.55905844 12.92372869 19.61764101 14.16796875 21.67578125 C14.80009277 22.7220166 15.4322168 23.76825195 16.08349609 24.84619141 C19.64614657 30.70890718 23.27708995 36.52945271 26.91186523 42.34765625 C27.42048096 43.16492188 27.92909668 43.9821875 28.453125 44.82421875 C28.89817383 45.53666748 29.34322266 46.24911621 29.80175781 46.9831543 C32.70168403 51.86422408 33.36203919 54.2375265 32 60 C30.26312218 62.89479637 28.94847318 63.01335881 25.625 63.875 C21.43258881 64.0195659 20.3104295 63.45897362 17 61 C15.078125 58.42236328 15.078125 58.42236328 13.25 55.3203125 C12.91456177 54.75930847 12.57912354 54.19830444 12.23352051 53.62030029 C11.14487504 51.79470919 10.07259302 49.96005949 9 48.125 C8.2506512 46.86267006 7.49998867 45.6011191 6.74804688 44.34033203 C5.60627019 42.42540469 4.46541289 40.50999253 3.32897949 38.59188843 C-0.20054862 32.63621493 -3.83639866 26.7490715 -7.5 20.875 C-8.55280601 19.18534591 -9.60495975 17.4952851 -10.65625 15.8046875 C-11.08744141 15.11358887 -11.51863281 14.42249023 -11.96289062 13.71044922 C-14.05270858 10.26382384 -14.39872925 8.06703838 -14 4 C-12.30231915 1.27158435 -11.01793147 -0.49103426 -8.125 -1.9375 C-4.9739404 -2.03017822 -2.86391501 -1.31262771 0 0 Z " fill="#000000" transform="translate(231,26)"/>
<path d="M0 0 C2.52329104 3.78493657 2.84294132 6.62821225 2 11 C0.29144916 14.79335838 -1.92094496 18.20566173 -4.1875 21.6875 C-4.81591797 22.68338135 -5.44433594 23.6792627 -6.09179688 24.70532227 C-7.40018121 26.7784042 -8.7152114 28.84730559 -10.03662109 30.91210938 C-11.92776114 33.88638683 -13.77831958 36.88142951 -15.61328125 39.890625 C-16.46853394 41.29115112 -16.46853394 41.29115112 -17.34106445 42.7199707 C-18.41455501 44.47847304 -19.48735507 46.23739717 -20.55932617 47.99682617 C-29.50746352 62.50248784 -29.50746352 62.50248784 -34.5625 64.1875 C-38.33208339 63.98188636 -40.06593843 63.32999007 -43 61 C-44.66861216 57.66277569 -44.66239727 54.58615741 -44 51 C-42.1607217 47.06897857 -39.78501204 43.53958313 -37.375 39.9375 C-35.99823949 37.81624576 -34.62328654 35.69381742 -33.25 33.5703125 C-32.19232422 31.94851074 -32.19232422 31.94851074 -31.11328125 30.29394531 C-27.13566498 24.09408409 -23.39887288 17.74479735 -19.65771484 11.40014648 C-10.52350077 -3.82672755 -10.52350077 -3.82672755 0 0 Z " fill="#000000" transform="translate(422,26)"/>
</svg>
